<svg aria-hidden="true" style="position: absolute; width: 0; height: 0; overflow: hidden;" version="1.1" xmlns="http://www.w3.org/2000/svg" xmlns:xlink="http://www.w3.org/1999/xlink">
<defs>
<symbol id="icon-twitter" viewBox="0 0 59 64">
<path d="M57.857 14.571c-1.571 2.286-3.536 4.321-5.786 5.964 0.036 0.5 0.036 1 0.036 1.5 0 15.25-11.607 32.821-32.821 32.821-6.536 0-12.607-1.893-17.714-5.179 0.929 0.107 1.821 0.143 2.786 0.143 5.393 0 10.357-1.821 14.321-4.929-5.071-0.107-9.321-3.429-10.786-8 0.714 0.107 1.429 0.179 2.179 0.179 1.036 0 2.071-0.143 3.036-0.393-5.286-1.071-9.25-5.714-9.25-11.321v-0.143c1.536 0.857 3.321 1.393 5.214 1.464-3.107-2.071-5.143-5.607-5.143-9.607 0-2.143 0.571-4.107 1.571-5.821 5.679 7 14.214 11.571 23.786 12.071-0.179-0.857-0.286-1.75-0.286-2.643 0-6.357 5.143-11.536 11.536-11.536 3.321 0 6.321 1.393 8.429 3.643 2.607-0.5 5.107-1.464 7.321-2.786-0.857 2.679-2.679 4.929-5.071 6.357 2.321-0.25 4.571-0.893 6.643-1.786z"></path>
</symbol>
<symbol id="icon-facebook" viewBox="0 0 38 64">
<path d="M34.25 0.429v9.429h-5.607c-4.393 0-5.214 2.107-5.214 5.143v6.75h10.464l-1.393 10.571h-9.071v27.107h-10.929v-27.107h-9.107v-10.571h9.107v-7.786c0-9.036 5.536-13.964 13.607-13.964 3.857 0 7.179 0.286 8.143 0.429z"></path>
</symbol>
<symbol id="icon-angle-left" viewBox="0 0 24 64">
<path d="M22.393 19.429c0 0.286-0.143 0.607-0.357 0.821l-14.036 14.036 14.036 14.036c0.214 0.214 0.357 0.536 0.357 0.821s-0.143 0.607-0.357 0.821l-1.786 1.786c-0.214 0.214-0.536 0.357-0.821 0.357s-0.607-0.143-0.821-0.357l-16.643-16.643c-0.214-0.214-0.357-0.536-0.357-0.821s0.143-0.607 0.357-0.821l16.643-16.643c0.214-0.214 0.536-0.357 0.821-0.357s0.607 0.143 0.821 0.357l1.786 1.786c0.214 0.214 0.357 0.5 0.357 0.821z"></path>
</symbol>
<symbol id="icon-angle-right" viewBox="0 0 22 64">
<path d="M21.25 34.286c0 0.286-0.143 0.607-0.357 0.821l-16.643 16.643c-0.214 0.214-0.536 0.357-0.821 0.357s-0.607-0.143-0.821-0.357l-1.786-1.786c-0.214-0.214-0.357-0.5-0.357-0.821 0-0.286 0.143-0.607 0.357-0.821l14.036-14.036-14.036-14.036c-0.214-0.214-0.357-0.536-0.357-0.821s0.143-0.607 0.357-0.821l1.786-1.786c0.214-0.214 0.536-0.357 0.821-0.357s0.607 0.143 0.821 0.357l16.643 16.643c0.214 0.214 0.357 0.536 0.357 0.821z"></path>
</symbol>
<symbol id="icon-angle-up" viewBox="0 0 41 64">
<path d="M38.393 42.286c0 0.286-0.143 0.607-0.357 0.821l-1.786 1.786c-0.214 0.214-0.5 0.357-0.821 0.357-0.286 0-0.607-0.143-0.821-0.357l-14.036-14.036-14.036 14.036c-0.214 0.214-0.536 0.357-0.821 0.357s-0.607-0.143-0.821-0.357l-1.786-1.786c-0.214-0.214-0.357-0.536-0.357-0.821s0.143-0.607 0.357-0.821l16.643-16.643c0.214-0.214 0.536-0.357 0.821-0.357s0.607 0.143 0.821 0.357l16.643 16.643c0.214 0.214 0.357 0.536 0.357 0.821z"></path>
</symbol>
<symbol id="icon-instagram" viewBox="0 0 55 64">
<path d="M36.571 32c0-5.036-4.107-9.143-9.143-9.143s-9.143 4.107-9.143 9.143 4.107 9.143 9.143 9.143 9.143-4.107 9.143-9.143zM41.5 32c0 7.786-6.286 14.071-14.071 14.071s-14.071-6.286-14.071-14.071 6.286-14.071 14.071-14.071 14.071 6.286 14.071 14.071zM45.357 17.357c0 1.821-1.464 3.286-3.286 3.286s-3.286-1.464-3.286-3.286 1.464-3.286 3.286-3.286 3.286 1.464 3.286 3.286zM27.429 9.5c-4 0-12.571-0.321-16.179 1.107-1.25 0.5-2.179 1.107-3.143 2.071s-1.571 1.893-2.071 3.143c-1.429 3.607-1.107 12.179-1.107 16.179s-0.321 12.571 1.107 16.179c0.5 1.25 1.107 2.179 2.071 3.143s1.893 1.571 3.143 2.071c3.607 1.429 12.179 1.107 16.179 1.107s12.571 0.321 16.179-1.107c1.25-0.5 2.179-1.107 3.143-2.071s1.571-1.893 2.071-3.143c1.429-3.607 1.107-12.179 1.107-16.179s0.321-12.571-1.107-16.179c-0.5-1.25-1.107-2.179-2.071-3.143s-1.893-1.571-3.143-2.071c-3.607-1.429-12.179-1.107-16.179-1.107zM54.857 32c0 3.786 0.036 7.536-0.179 11.321-0.214 4.393-1.214 8.286-4.429 11.5s-7.107 4.214-11.5 4.429c-3.786 0.214-7.536 0.179-11.321 0.179s-7.536 0.036-11.321-0.179c-4.393-0.214-8.286-1.214-11.5-4.429s-4.214-7.107-4.429-11.5c-0.214-3.786-0.179-7.536-0.179-11.321s-0.036-7.536 0.179-11.321c0.214-4.393 1.214-8.286 4.429-11.5s7.107-4.214 11.5-4.429c3.786-0.214 7.536-0.179 11.321-0.179s7.536-0.036 11.321 0.179c4.393 0.214 8.286 1.214 11.5 4.429s4.214 7.107 4.429 11.5c0.214 3.786 0.179 7.536 0.179 11.321z"></path>
</symbol>
<symbol id="icon-dribbble" viewBox="0 0 55 64">
<path d="M36.571 53.571c-0.357-2.071-1.714-9.214-5-17.786-0.036 0-0.107 0.036-0.143 0.036 0 0-13.893 4.857-18.393 14.643-0.214-0.179-0.536-0.393-0.536-0.393 4.071 3.321 9.25 5.357 14.929 5.357 3.25 0 6.321-0.679 9.143-1.857zM29.964 31.893c-0.571-1.321-1.214-2.643-1.893-3.964-12.071 3.607-23.643 3.321-24.036 3.321-0.036 0.25-0.036 0.5-0.036 0.75 0 6 2.286 11.5 6 15.643v0c6.393-11.393 19.036-15.464 19.036-15.464 0.321-0.107 0.643-0.179 0.929-0.286zM26.143 24.321c-4.071-7.214-8.393-13.071-8.714-13.5-6.536 3.071-11.393 9.107-12.929 16.357 0.607 0 10.393 0.107 21.643-2.857zM50.571 35.714c-0.5-0.143-7.036-2.214-14.607-1.036 3.071 8.464 4.321 15.357 4.571 16.75 5.25-3.536 8.964-9.179 10.036-15.714zM21.821 9.25c-0.036 0-0.036 0-0.071 0.036 0 0 0.036-0.036 0.071-0.036zM42.893 14.429c-4.107-3.643-9.536-5.857-15.464-5.857-1.893 0-3.75 0.25-5.536 0.679 0.357 0.464 4.786 6.286 8.786 13.643 8.821-3.286 12.143-8.357 12.214-8.464zM50.857 31.75c-0.071-5.536-2.036-10.643-5.321-14.643-0.071 0.071-3.821 5.5-13.071 9.286 0.536 1.107 1.071 2.25 1.571 3.393 0.179 0.393 0.321 0.821 0.5 1.214 8.071-1.036 16.036 0.714 16.321 0.75zM54.857 32c0 15.143-12.286 27.429-27.429 27.429s-27.429-12.286-27.429-27.429 12.286-27.429 27.429-27.429 27.429 12.286 27.429 27.429z"></path>
</symbol>
<symbol id="icon-browser" viewBox="0 0 84 64">
<path d="M83 20c-0.552 0-1 0.448-1 1v40c0 0.552-0.448 1-1 1h-78c-0.552 0-1-0.448-1-1v-40c0-0.552-0.448-1-1-1s-1 0.448-1 1v40c0 1.654 1.346 3 3 3h78c1.654 0 3-1.346 3-3v-40c0-0.552-0.448-1-1-1zM81 0h-78c-1.654 0-3 1.346-3 3v12c0 0.552 0.448 1 1 1h82c0.552 0 1-0.448 1-1v-12c0-1.654-1.346-3-3-3zM82 14h-80v-11c0-0.552 0.448-1 1-1h78c0.552 0 1 0.448 1 1v11zM35 56c0.552 0 1-0.448 1-1v-32c0-0.552-0.448-1-1-1h-26c-0.552 0-1 0.448-1 1v32c0 0.552 0.448 1 1 1h26zM10 24h24v30h-24v-30zM45 30h30c0.552 0 1-0.448 1-1s-0.448-1-1-1h-30c-0.552 0-1 0.448-1 1s0.448 1 1 1zM45 40h30c0.552 0 1-0.448 1-1s-0.448-1-1-1h-30c-0.552 0-1 0.448-1 1s0.448 1 1 1zM45 50h30c0.552 0 1-0.448 1-1s-0.448-1-1-1h-30c-0.552 0-1 0.448-1 1s0.448 1 1 1zM6 8c0 1.105 0.895 2 2 2s2-0.895 2-2c0-1.105-0.895-2-2-2s-2 0.895-2 2zM14 8c0 1.105 0.895 2 2 2s2-0.895 2-2c0-1.105-0.895-2-2-2s-2 0.895-2 2zM22 8c0 1.105 0.895 2 2 2s2-0.895 2-2c0-1.105-0.895-2-2-2s-2 0.895-2 2z"></path>
</symbol>
<symbol id="icon-presentation" viewBox="0 0 62 64">
<path d="M1 6c-0.552 0-1 0.448-1 1v34c0 1.654 1.346 3 3 3h56c1.654 0 3-1.346 3-3v-34c0-0.552-0.448-1-1-1s-1 0.448-1 1v34c0 0.552-0.448 1-1 1h-56c-0.552 0-1-0.448-1-1v-34c0-0.552-0.448-1-1-1zM65 0h-68c-0.552 0-1 0.448-1 1s0.448 1 1 1h68c0.552 0 1-0.448 1-1s-0.448-1-1-1zM23.708 16.292c-0.366-0.366-0.95-0.392-1.348-0.062l-12 10c-0.424 0.354-0.482 0.984-0.128 1.41 0.354 0.424 0.982 0.482 1.41 0.128l11.298-9.416 11.354 11.354c0.194 0.196 0.45 0.294 0.706 0.294s0.512-0.098 0.708-0.292l14.292-14.294v7.586c0 0.552 0.448 1 1 1s1-0.448 1-1v-10c0-0.13-0.026-0.26-0.076-0.382-0.102-0.244-0.296-0.44-0.542-0.542-0.122-0.050-0.252-0.076-0.382-0.076h-10c-0.552 0-1 0.448-1 1s0.448 1 1 1h7.586l-13.586 13.586-11.292-11.294zM16.114 63.464c0.256 0.49 0.86 0.678 1.35 0.422l13.536-7.090 13.536 7.090c0.148 0.078 0.306 0.114 0.464 0.114 0.36 0 0.708-0.196 0.886-0.536 0.256-0.49 0.068-1.094-0.422-1.35l-13.786-7.22c0.196-0.182 0.322-0.438 0.322-0.728v-5.166c0-0.552-0.448-1-1-1s-1 0.448-1 1v5.166c0 0.288 0.126 0.544 0.322 0.726l-13.786 7.22c-0.49 0.258-0.678 0.862-0.422 1.352z"></path>
</symbol>
<symbol id="icon-edit" viewBox="0 0 64 64">
<path d="M3 64h58c1.654 0 3-1.346 3-3v-58c0-1.654-1.346-3-3-3h-58c-1.654 0-3 1.346-3 3v58c0 1.654 1.346 3 3 3zM2 3c0-0.552 0.45-1 1-1h58c0.55 0 1 0.448 1 1v58c0 0.552-0.45 1-1 1h-58c-0.55 0-1-0.448-1-1v-58zM8 56.958c0.096 0 0.192-0.014 0.286-0.042l20-5.958c0.162-0.048 0.308-0.136 0.426-0.254l20.18-20.41c0.046-0.048 0.070-0.106 0.104-0.16l7.316-7.316c1.214-1.214 1.214-3.19 0-4.406l-10.472-10.468c-1.214-1.214-3.19-1.216-4.404 0l-7.478 7.478c-0.048 0.048-0.072 0.108-0.108 0.162l-20.236 20.238c-0.112 0.112-0.196 0.248-0.244 0.398l-6.32 19.43c-0.116 0.354-0.024 0.742 0.234 1.008 0.19 0.194 0.45 0.3 0.716 0.3zM34.718 17.542l2.080 2.080-17.046 17.126-3.454-0.784 18.42-18.422zM21 38.33l17.214-17.292 4.868 4.868-17.49 17.094h-4.592v-4.67zM46.77 29.594l-18.492 18.704-1.152-3.998 17.368-16.978 2.276 2.272zM14.986 37.718l4.014 0.912v5.37c0 0.552 0.448 1 1 1h5.248l1.266 4.4-16.974 5.056 5.446-16.738zM42.85 9.358c0.436-0.434 1.144-0.432 1.576 0l10.47 10.47c0.436 0.434 0.436 1.142 0 1.578l-6.744 6.744-12.046-12.046 6.744-6.746z"></path>
</symbol>
</defs>
</svg>
